<svg width="598" height="570" viewBox="0 0 598 570" fill="none" xmlns="http://www.w3.org/2000/svg">
<g clip-path="url(#clip0_1_2887)">
<path d="M545.421 129.886C543.363 126.473 541.231 123.123 538.987 119.846C509.232 76.2489 459.704 46.401 411.576 32.8866C390.488 26.9517 368.841 23.8482 347.232 23.0569C205.478 17.9256 153.395 134.486 107.722 164.544C62.0494 194.602 -8.0468 245.939 0.755519 353.782C7.42545 435.783 54.2017 514.187 139.621 549.858C149.031 553.802 158.912 557.227 169.264 560.059C188.518 565.338 209.383 568.664 231.872 569.654C296.452 572.522 348.894 556.992 400.183 517.896C412.109 508.808 423.961 498.558 439.434 497.433C450.678 496.617 461.34 500.647 449.587 511.491C435.776 524.227 451.707 549.289 486.793 531.88C545.371 502.799 569.472 440.061 580.829 376.273C594.764 297.969 588.007 200.586 545.421 129.886Z" fill="#BCA3F9"/>
<path d="M50.481 106.553C50.9324 107.092 51.3949 107.617 51.8749 108.127C58.2429 114.912 67.6752 118.762 76.4174 119.803C80.2483 120.262 84.099 120.212 87.8799 119.76C112.681 116.786 121.466 113.546 132.499 97.5001C142.525 82.9191 143.595 71.2265 139.116 52.6743C135.714 38.567 125.434 26.1812 109.598 22.2962C107.853 21.8657 93.0083 21.3641 93.0083 21.3641C81.6951 22.6266 61.7297 21.895 49.6925 34.9029C41.19 44.0911 37.8185 53.1592 37.5864 64.5847C37.3026 78.61 41.1399 95.3953 50.481 106.553Z" fill="#BCA3F9"/>
<path d="M521.236 151.993C521.236 151.993 514.727 124.952 476.778 119.548C438.829 114.145 433.398 146.59 425.811 150.917C418.224 155.245 413.885 143.35 401.958 144.426C390.031 145.502 383.523 155.245 378.105 159.572C372.687 163.9 362.918 150.917 355.33 153.081C347.743 155.245 341.234 166.064 341.234 166.064H561.367C561.367 166.064 553.779 154.169 542.932 149.841C532.084 145.514 527.744 152.005 521.248 152.005L521.236 151.993Z" stroke="#303826" stroke-linecap="round" stroke-linejoin="round"/>
<path d="M155.777 233.179C155.777 233.179 151.115 213.804 123.902 209.922C96.7021 206.051 92.8092 229.297 87.3666 232.4C81.9241 235.504 78.8123 226.972 70.2703 227.751C61.7159 228.53 57.0544 235.504 53.1739 238.607C49.2935 241.711 42.2888 232.4 36.8463 233.958C31.4037 235.516 26.7422 243.256 26.7422 243.256H184.539C184.539 243.256 179.097 234.725 171.323 231.634C163.55 228.53 160.438 233.179 155.777 233.179Z" stroke="#303826" stroke-linecap="round" stroke-linejoin="round"/>
<path d="M226.717 69.4111C226.717 69.4111 223.766 57.1332 206.521 54.6726C189.288 52.2121 186.821 66.9506 183.375 68.9165C179.928 70.8825 177.957 65.4792 172.539 65.9738C167.121 66.4684 164.171 70.8825 161.704 72.8484C159.236 74.8144 154.811 68.9165 151.364 69.9057C147.917 70.8948 144.967 75.8035 144.967 75.8035H244.954C244.954 75.8035 241.507 70.4003 236.585 68.4343C231.663 66.4684 229.692 69.4111 226.729 69.4111H226.717Z" stroke="#303826" stroke-linecap="round" stroke-linejoin="round"/>
<path d="M368.347 94.7217C384.082 94.7217 396.837 82.0005 396.837 66.3081C396.837 50.6157 384.082 37.8945 368.347 37.8945C352.613 37.8945 339.857 50.6157 339.857 66.3081C339.857 82.0005 352.613 94.7217 368.347 94.7217Z" fill="#DDEF67" stroke="#303826" stroke-linecap="round" stroke-linejoin="round"/>
<path d="M368.348 18.6182V30.179" stroke="#303826" stroke-linecap="round" stroke-linejoin="round"/>
<path d="M368.348 104.354V115.914" stroke="#303826" stroke-linecap="round" stroke-linejoin="round"/>
<path d="M402.837 32.8623L394.643 41.0476" stroke="#303826" stroke-linecap="round" stroke-linejoin="round"/>
<path d="M342.051 93.498L333.844 101.671" stroke="#303826" stroke-linecap="round" stroke-linejoin="round"/>
<path d="M417.119 67.2725H405.527" stroke="#303826" stroke-linecap="round" stroke-linejoin="round"/>
<path d="M331.154 67.2725H319.562" stroke="#303826" stroke-linecap="round" stroke-linejoin="round"/>
<path d="M402.837 101.671L394.643 93.498" stroke="#303826" stroke-linecap="round" stroke-linejoin="round"/>
<path d="M342.051 41.0476L333.844 32.8623" stroke="#303826" stroke-linecap="round" stroke-linejoin="round"/>
<path d="M437.054 224.424C437.054 224.424 442.782 223.002 444.493 223.571C446.204 224.14 443.352 226.168 443.352 226.168C443.352 226.168 444.778 226.996 445.633 228.999C446.489 231.002 442.782 230.137 442.782 230.137C442.782 230.137 443.91 231.571 442.782 232.709C441.654 233.846 436.484 228.146 436.484 228.146C436.484 228.146 432.764 230.433 429.33 230.149C425.896 229.865 423.888 229.012 421.607 225.587C419.325 222.162 417.602 220.455 417.602 220.455L415.309 219.602L418.743 217.599C418.743 217.599 421.607 215.027 424.47 215.312C427.334 215.596 428.475 216.449 428.475 216.449C428.475 216.449 430.186 211.887 432.764 210.168C435.343 208.449 443.352 206.174 445.931 204.74C448.509 203.318 447.939 205.593 447.071 207.028C446.203 208.462 443.637 209.599 442.497 210.168C441.356 210.737 448.509 211.021 447.356 212.456C446.204 213.89 441.914 214.459 441.914 214.459C441.914 214.459 445.918 215.88 445.063 217.03C444.207 218.168 440.773 218.168 440.773 218.168C440.773 218.168 441.914 221.024 440.203 221.024H438.48C438.48 221.024 439.335 225.018 437.054 224.449V224.424Z" fill="#E2F27A" stroke="#303826" stroke-linecap="round" stroke-linejoin="round"/>
<path d="M428.463 216.437C428.463 216.437 426.169 211.875 427.322 209.019C428.463 206.162 439.05 198.744 438.765 201.6C438.48 204.456 435.616 206.162 435.616 206.162C435.616 206.162 439.906 204.74 439.906 205.878V207.016C439.906 207.016 435.046 208.153 432.752 210.156C430.459 212.159 428.463 216.437 428.463 216.437Z" fill="#303826" stroke="#303826" stroke-linecap="round" stroke-linejoin="round"/>
<path d="M421.768 219.504C422.24 219.504 422.623 219.122 422.623 218.651C422.623 218.18 422.24 217.798 421.768 217.798C421.295 217.798 420.912 218.18 420.912 218.651C420.912 219.122 421.295 219.504 421.768 219.504Z" fill="#303826"/>
<path d="M433.413 228.013C432.893 229.744 430.165 230.461 427.314 229.621C424.462 228.78 422.565 226.69 423.086 224.959C423.607 223.228 426.334 222.511 429.186 223.352C432.037 224.193 433.934 226.282 433.413 228.013Z" fill="white" stroke="#303826" stroke-linecap="round" stroke-linejoin="round"/>
<path d="M152.405 151.277C152.405 151.277 146.677 149.855 144.966 150.424C143.255 150.992 146.107 153.02 146.107 153.02C146.107 153.02 144.681 153.849 143.826 155.852C142.97 157.855 146.677 156.989 146.677 156.989C146.677 156.989 145.549 158.424 146.677 159.561C147.818 160.699 152.975 154.999 152.975 154.999C152.975 154.999 156.694 157.286 160.128 157.002C163.563 156.717 165.571 155.864 167.852 152.439C170.133 149.014 171.857 147.308 171.857 147.308L174.15 146.455L170.716 144.452C170.716 144.452 167.852 141.88 164.988 142.164C162.125 142.449 160.984 143.302 160.984 143.302C160.984 143.302 159.273 138.739 156.694 137.021C154.116 135.302 146.107 133.027 143.528 131.593C140.949 130.171 141.52 132.446 142.387 133.88C143.243 135.302 145.822 136.452 146.962 137.021C148.103 137.589 140.949 137.874 142.102 139.308C143.243 140.73 147.545 141.311 147.545 141.311C147.545 141.311 143.54 142.733 144.396 143.883C145.251 145.033 148.685 145.02 148.685 145.02C148.685 145.02 147.545 147.877 149.256 147.877H150.967C150.967 147.877 150.111 151.87 152.392 151.302L152.405 151.277Z" fill="#E2F27A" stroke="#303826" stroke-linecap="round" stroke-linejoin="round"/>
<path d="M160.998 143.277C160.998 143.277 163.291 138.715 162.138 135.858C160.998 133.002 150.41 125.584 150.695 128.44C150.98 131.296 153.844 133.002 153.844 133.002C153.844 133.002 149.555 131.58 149.555 132.718V133.855C149.555 133.855 154.415 134.993 156.708 136.996C159.002 138.999 160.998 143.277 160.998 143.277Z" fill="#303826" stroke="#303826" stroke-linecap="round" stroke-linejoin="round"/>
<path d="M166.836 145.503C166.836 145.972 167.22 146.356 167.691 146.356C168.162 146.356 168.547 145.972 168.547 145.503C168.547 145.033 168.162 144.649 167.691 144.649C167.22 144.649 166.836 145.033 166.836 145.503Z" fill="#303826"/>
<path d="M156.086 155.013C156.607 156.744 159.334 157.461 162.186 156.621C165.037 155.78 166.934 153.69 166.413 151.959C165.893 150.228 163.165 149.511 160.314 150.352C157.462 151.193 155.565 153.282 156.086 155.013Z" fill="white" stroke="#303826" stroke-linecap="round" stroke-linejoin="round"/>
<path d="M137.043 363.834C137.043 363.834 125.724 345.893 105.219 335.285C84.7129 324.676 75.9725 314.203 86.6097 314.834C99.5156 315.588 128.762 325.813 142.052 361.794C147.792 377.324 137.031 363.834 137.031 363.834" fill="#E2F27A"/>
<path d="M137.043 363.834C137.043 363.834 125.724 345.893 105.219 335.285C84.7129 324.676 75.9725 314.203 86.6097 314.834C99.5156 315.588 128.762 325.813 142.052 361.794C147.792 377.324 137.031 363.834 137.031 363.834" stroke="#303826" stroke-linecap="round" stroke-linejoin="round"/>
<path d="M136.36 359.135C136.36 359.135 126.107 338.685 106.742 328.83" stroke="#303826" stroke-linecap="round" stroke-linejoin="round"/>
<path d="M149.366 376.236C149.366 376.236 142.895 358.196 146.8 337.733C150.693 317.269 148.114 305.226 142.622 313.127C135.952 322.698 126.902 349.133 145.126 378.659C152.986 391.395 149.379 376.248 149.379 376.248" fill="#E2F27A"/>
<path d="M149.366 376.236C149.366 376.236 142.895 358.196 146.8 337.733C150.693 317.269 148.114 305.226 142.622 313.127C135.952 322.698 126.902 349.133 145.126 378.659C152.986 391.395 149.379 376.248 149.379 376.248" stroke="#303826" stroke-linecap="round" stroke-linejoin="round"/>
<path d="M146.416 373.133C146.416 373.133 137.564 354.438 141.371 335.211" stroke="#303826" stroke-linecap="round" stroke-linejoin="round"/>
<path d="M137.874 354.808C137.874 354.808 131.402 336.768 135.308 316.305C139.201 295.842 136.622 283.799 131.13 291.7C124.46 301.27 115.409 327.705 133.634 357.231C141.494 369.967 137.886 354.82 137.886 354.82" fill="#E2F27A"/>
<path d="M137.874 354.808C137.874 354.808 131.402 336.768 135.308 316.305C139.2 295.842 136.622 283.799 131.13 291.7C124.46 301.27 115.409 327.705 133.634 357.231C141.494 369.967 137.886 354.82 137.886 354.82" stroke="#303826" stroke-linecap="round" stroke-linejoin="round"/>
<path d="M136.362 359.136C136.362 359.136 126.072 333.01 129.878 313.783" stroke="#303826" stroke-linecap="round" stroke-linejoin="round"/>
<path d="M395.311 341.48C395.311 341.48 406.631 323.539 427.136 312.93C447.642 302.321 456.382 291.849 445.745 292.479C432.827 293.233 403.593 303.459 390.303 339.44C384.563 354.969 395.324 341.48 395.324 341.48" fill="#E2F27A"/>
<path d="M395.311 341.48C395.311 341.48 406.631 323.539 427.136 312.93C447.642 302.321 456.382 291.849 445.745 292.479C432.827 293.233 403.593 303.459 390.303 339.44C384.563 354.969 395.324 341.48 395.324 341.48" stroke="#303826" stroke-linecap="round" stroke-linejoin="round"/>
<path d="M395.994 336.794C395.994 336.794 406.247 316.343 425.612 306.488" stroke="#303826" stroke-linecap="round" stroke-linejoin="round"/>
<path d="M382.976 353.881C382.976 353.881 389.447 335.841 385.542 315.378C381.649 294.915 384.228 282.872 389.72 290.773C396.39 300.343 405.44 326.778 387.216 356.305C379.355 369.04 382.963 353.894 382.963 353.894" fill="#E2F27A"/>
<path d="M382.976 353.881C382.976 353.881 389.447 335.841 385.542 315.378C381.649 294.915 384.228 282.872 389.72 290.773C396.39 300.343 405.44 326.778 387.216 356.305C379.355 369.04 382.963 353.894 382.963 353.894" stroke="#303826" stroke-linecap="round" stroke-linejoin="round"/>
<path d="M385.939 350.79C385.939 350.79 394.791 332.095 390.985 312.868" stroke="#303826" stroke-linecap="round" stroke-linejoin="round"/>
<path d="M394.468 332.454C394.468 332.454 400.939 314.414 397.034 293.95C393.141 273.487 395.72 261.444 401.212 269.345C407.882 278.915 416.932 305.351 398.708 334.877C390.848 347.612 394.455 332.466 394.455 332.466" fill="#E2F27A"/>
<path d="M394.468 332.454C394.468 332.454 400.939 314.414 397.034 293.95C393.141 273.487 395.72 261.444 401.212 269.345C407.882 278.915 416.932 305.351 398.708 334.877C390.848 347.612 394.455 332.466 394.455 332.466" stroke="#303826" stroke-linecap="round" stroke-linejoin="round"/>
<path d="M395.992 336.793C395.992 336.793 406.282 310.667 402.476 291.44" stroke="#303826" stroke-linecap="round" stroke-linejoin="round"/>
<path d="M400.47 277.494H282.618L216.688 172.939H334.539L400.47 277.494Z" fill="#303826" stroke="#303826" stroke-linecap="round" stroke-linejoin="round"/>
<path d="M266.228 273.908H145.438V380.317H266.228V273.908Z" fill="#CBCBCB" stroke="#303826" stroke-linecap="round" stroke-linejoin="round"/>
<path d="M387.005 380.317H266.215V273.908L327.62 176.525L387.005 273.908V380.317Z" fill="white" stroke="#303826" stroke-linecap="round" stroke-linejoin="round"/>
<path d="M292.386 292.975H280.311V329.116H292.386V292.975Z" fill="#C7C7C7" stroke="#303826" stroke-linecap="round" stroke-linejoin="round"/>
<path d="M304.462 292.975H292.387V329.116H304.462V292.975Z" fill="#303826" stroke="#303826" stroke-linecap="round" stroke-linejoin="round"/>
<path d="M316.548 292.975H304.473V329.116H316.548V292.975Z" fill="#C7C7C7" stroke="#303826" stroke-linecap="round" stroke-linejoin="round"/>
<path d="M237.032 292.975H226.965V329.116H237.032V292.975Z" fill="#919191" stroke="#303826" stroke-linecap="round" stroke-linejoin="round"/>
<path d="M247.098 292.975H237.031V329.116H247.098V292.975Z" fill="#303826" stroke="#303826" stroke-linecap="round" stroke-linejoin="round"/>
<path d="M257.165 292.975H247.098V329.116H257.165V292.975Z" fill="#919191" stroke="#303826" stroke-linecap="round" stroke-linejoin="round"/>
<path d="M162.545 292.975H152.479V329.116H162.545V292.975Z" fill="#919191" stroke="#303826" stroke-linecap="round" stroke-linejoin="round"/>
<path d="M172.612 292.975H162.545V329.116H172.612V292.975Z" fill="#303826" stroke="#303826" stroke-linecap="round" stroke-linejoin="round"/>
<path d="M182.678 292.975H172.611V329.116H182.678V292.975Z" fill="#919191" stroke="#303826" stroke-linecap="round" stroke-linejoin="round"/>
<path d="M353.792 292.975H341.717V329.116H353.792V292.975Z" fill="#C7C7C7" stroke="#303826" stroke-linecap="round" stroke-linejoin="round"/>
<path d="M365.868 292.975H353.793V329.116H365.868V292.975Z" fill="#303826" stroke="#303826" stroke-linecap="round" stroke-linejoin="round"/>
<path d="M377.943 292.975H365.867V329.116H377.943V292.975Z" fill="#C7C7C7" stroke="#303826" stroke-linecap="round" stroke-linejoin="round"/>
<path d="M325.613 233.748H317.555V255.831H325.613V233.748Z" fill="#C7C7C7" stroke="#303826" stroke-linecap="round" stroke-linejoin="round"/>
<path d="M333.672 233.748H325.613V255.831H333.672V233.748Z" fill="#303826" stroke="#303826" stroke-linecap="round" stroke-linejoin="round"/>
<path d="M341.719 233.748H333.66V255.831H341.719V233.748Z" fill="#C7C7C7" stroke="#303826" stroke-linecap="round" stroke-linejoin="round"/>
<path d="M138.705 277.494H268.409L334.34 172.939H204.636L138.705 277.494Z" fill="#8E68EC" stroke="#303826" stroke-linecap="round" stroke-linejoin="round"/>
<path d="M239.969 220.16H188.754V253.965H239.969V220.16Z" fill="#C7C7C7" stroke="#303826" stroke-linecap="round" stroke-linejoin="round"/>
<path d="M239.98 220.16L275.376 195.926L239.98 253.965V220.16Z" fill="white" stroke="#303826" stroke-linecap="round" stroke-linejoin="round"/>
<path d="M184.65 221.31H238.295L275.376 195.926H221.732L184.65 221.31Z" fill="#8E68EC" stroke="#303826" stroke-linecap="round" stroke-linejoin="round"/>
<path d="M209.359 227.344H201.301V249.427H209.359V227.344Z" fill="#919191" stroke="#303826" stroke-linecap="round" stroke-linejoin="round"/>
<path d="M217.406 227.344H209.348V249.427H217.406V227.344Z" fill="#303826" stroke="#303826" stroke-linecap="round" stroke-linejoin="round"/>
<path d="M225.465 227.344H217.406V249.427H225.465V227.344Z" fill="#919191" stroke="#303826" stroke-linecap="round" stroke-linejoin="round"/>
<path d="M303.122 157.076H298.609V189.879L303.122 182.634V157.076Z" fill="white" stroke="#303826" stroke-linecap="round" stroke-linejoin="round"/>
<path d="M298.821 157.076H285.506V189.879H298.821V157.076Z" fill="#C7C7C7" stroke="#303826" stroke-linecap="round" stroke-linejoin="round"/>
<path d="M221.335 299.058H190.328V380.317H221.335V299.058Z" fill="#303826" stroke="#303826" stroke-linecap="round" stroke-linejoin="round"/>
<path d="M219.685 339.576C219.685 338.068 218.457 336.844 216.945 336.844C215.432 336.844 214.205 338.068 214.205 339.576C214.205 341.085 215.432 342.309 216.945 342.309C218.457 342.309 219.685 341.085 219.685 339.576Z" fill="white" stroke="#303826" stroke-linecap="round" stroke-linejoin="round"/>
<path d="M139.039 363.315C139.039 363.315 113.078 349.145 88.8286 346.512C64.5788 343.878 50.5571 355.142 50.6686 360.039C50.7926 364.935 67.6162 365.293 70.8148 366.11C74.001 366.926 93.5025 361.559 122.29 368.372C151.065 375.197 154.747 376.595 154.747 376.595L139.039 363.303V363.315Z" fill="white" stroke="#303826" stroke-linecap="round" stroke-linejoin="round"/>
<path d="M128.179 362.993C128.179 362.993 101.09 351.099 76.7041 350.567C52.3179 350.023 39.3128 362.449 39.8583 367.321C40.4038 372.18 57.2026 371.105 60.4508 371.649C63.6989 372.193 82.6673 365.17 111.926 369.485C141.184 373.812 144.978 374.888 144.978 374.888L128.179 363.006V362.993Z" fill="white" stroke="#303826" stroke-linecap="round" stroke-linejoin="round"/>
<path d="M474.495 352.991L436.881 342.827C436.881 342.827 410.238 321.721 378.103 324.07C345.969 326.419 316.971 338.92 307.561 345.955C298.151 352.991 286.398 360.026 284.042 361.584C281.687 363.142 249.552 354.549 232.32 361.584C215.074 368.619 201.747 382.69 201.747 382.69C201.747 382.69 128.861 360.805 110.835 357.677C92.8089 354.549 71.6462 356.119 56.7566 367.062C41.8671 378.004 45.0037 385.039 52.839 386.597C60.6743 388.155 62.2488 380.341 105.355 392.075C148.462 403.796 200.978 434.287 222.141 446.009C243.304 457.73 278.575 474.15 302.081 467.115C325.599 460.08 389.856 435.845 404.758 435.845C419.66 435.845 467.453 438.973 467.453 438.973L474.507 352.991H474.495Z" fill="white" stroke="#303826" stroke-linecap="round" stroke-linejoin="round"/>
<path d="M454.026 404.699L421.693 435.66L467.441 438.974L454.026 404.699Z" fill="#303826" stroke="#303826" stroke-linecap="round" stroke-linejoin="round"/>
<path d="M201.747 382.69C201.747 382.69 194.469 392.236 197.531 404.6C199.428 412.242 208.367 410.548 224.62 407.308C240.874 404.069 225.699 401.905 263.636 401.361C301.56 400.817 342.199 399.741 344.369 399.741" stroke="#303826" stroke-linecap="round" stroke-linejoin="round"/>
<path d="M201.475 409.212C201.475 409.212 202.194 404.279 207.475 401.225C207.475 401.225 216.488 396.563 222.154 396.563C227.82 396.563 232.494 402.548 230.832 404.551" stroke="#303826" stroke-linecap="round" stroke-linejoin="round"/>
<path d="M250.184 399.889V393.237" stroke="#303826" stroke-linecap="round" stroke-linejoin="round"/>
<path d="M253.52 386.919C253.52 386.919 254.524 390.579 253.854 396.242" stroke="#303826" stroke-linecap="round" stroke-linejoin="round"/>
<path d="M456.914 337.449H507.459V475.028H456.914C453.84 475.028 451.348 472.543 451.348 469.477V342.988C451.348 339.922 453.84 337.437 456.914 337.437V337.449Z" fill="#8E68EC" stroke="#303826" stroke-linecap="round" stroke-linejoin="round"/>
<path d="M508.33 330H600V486H508.33C505.943 486 504 484.101 504 481.767V334.245C504 331.912 505.943 330.012 508.33 330.012V330Z" fill="#8E68EC" stroke="#303826" stroke-linecap="round" stroke-linejoin="round"/>
<path d="M459.121 350.048H500.839" stroke="#303826" stroke-linecap="round" stroke-linejoin="round"/>
<path d="M500.279 366.381H457.867" stroke="#303826" stroke-linecap="round" stroke-linejoin="round"/>
<path d="M456.381 396.056H485.391" stroke="#303826" stroke-linecap="round" stroke-linejoin="round"/>
<path d="M490.6 396.057H500.282" stroke="#303826" stroke-linecap="round" stroke-linejoin="round"/>
</g>
<defs>
<clipPath id="clip0_1_2887">
<rect width="598" height="570" fill="white"/>
</clipPath>
</defs>
</svg>
